<?xml version="1.0" encoding="UTF-8" standalone="no"?>
<svg xmlns:svg="http://www.w3.org/2000/svg" xmlns="http://www.w3.org/2000/svg" version="1.0" width="361.39932" height="79.393311" viewBox="0 0 361.39932 79.393311" id="svg1"><defs id="defs1"><style type="text/css"><![CDATA[ path { fill:#007b5f; fill-opacity:1; fill-rule:nonzero; stroke:none } ]]></style></defs><path d="M 182.03125,25.375 C 169.20025,25.375 159.78125,30.84395 159.78125,41.75 C 159.78125,61.35305 189.3125,56.0117 189.3125,63.78125 C 189.3125,66.20462 186.5185,67.5625 182.3125,67.5625 C 180.673,67.5625 178.88575,67.13673 177.53125,66.28125 C 176.10625,65.42579 175.107,64.07215 174.75,62.21875 L 158.65625,62.21875 C 159.01325,71.486 167.8315,79.40625 181.375,79.40625 C 195.49,79.40625 205.40625,73.62329 205.40625,61.71875 C 205.40625,43.04255 175.90625,47.8236 175.90625,40.125 C 175.90625,38.27175 177.5435,37.1875 181.25,37.1875 C 182.8895,37.1875 184.38175,37.48345 185.59375,38.125 C 186.80574,38.7661 187.74625,39.84255 188.03125,41.625 L 204,41.625 C 202.788,32.64315 196.28875,25.375 182.03125,25.375 z M 287.65625,25.375 C 271.68876,25.375 260.78125,35.82705 260.78125,51.9375 C 260.78125,69.40192 271.54625,79.40625 287.65625,79.40625 C 302.83926,79.40625 314.59375,69.55821 314.59375,52.09375 C 314.59374,38.5504 305.97575,25.375 287.65625,25.375 z M 88.84375,26.71875 L 101.59375,78.03125 L 118.125,78.03125 L 123.96875,48.25 L 124.125,48.25 L 130.03125,78.03125 L 146.59375,78.03125 L 159.34375,26.71875 L 143.09375,26.71875 L 137.3125,58.4375 L 137.15625,58.4375 L 131.03125,26.71875 L 117.125,26.71875 L 111,58.4375 L 110.875,58.4375 L 105.09375,26.71875 L 88.84375,26.71875 z M 208.90625,26.71875 L 208.90625,78.03125 L 231,78.03125 C 247.467,78.03125 258.25,70.63034 258.25,51.3125 C 258.25001,34.41875 247.975,26.71875 231.4375,26.71875 L 208.90625,26.71875 z M 314.34375,26.71875 L 314.34375,40.1875 L 329.46875,40.1875 L 329.46875,78.03125 L 346.28125,78.03125 L 346.28125,40.1875 L 361.40625,40.1875 L 361.40625,26.71875 L 314.34375,26.71875 z M 287.5,37.90625 C 294.91299,37.69235 297.78125,45.10825 297.78125,52.09375 C 297.78125,60.577 294.92675,66.84375 287.65625,66.84375 C 279.60126,66.84375 277.59375,58.6522 277.59375,52.09375 C 277.59374,45.60745 279.8725,37.90625 287.5,37.90625 z M 225.75,38.6875 L 228.9375,38.6875 C 237.9195,38.6875 241.40625,41.55725 241.40625,52.25 C 241.40626,61.94435 237.153,66.0625 229.3125,66.0625 L 225.75,66.0625 L 225.75,38.6875 z" id="acronym"/><path d="M 39.46875,0 C 24.07725,0 10.73829,8.85325 4.1875,21.71875 L 48,21.71875 C 49.4994,21.71875 50.10505,22.81635 50.5,24 C 51.6835,22.4214 53.601,21.71875 55.96875,21.71875 L 74.75,21.71875 C 68.27765,8.85325 54.8595,0 39.46875,0 z M 2.21875,26.59375 C 1.27129,29.35585 0.56582,32.1881 0.25,35.1875 L 37.1875,35.1875 C 40.89715,35.1875 39.70685,40.2639 37.8125,43.5 C 31.89275,53.68185 25.90305,63.94312 20.0625,74.125 C 22.5093,75.46681 25.1123,76.64825 27.875,77.4375 L 27.9375,77.28125 C 33.30465,68.20449 42.21855,53.0383 49.875,40.09375 C 52.00605,36.54235 54.3841,35.1875 58.09375,35.1875 L 78.78125,35.1875 C 78.46535,32.1881 77.75945,29.35585 76.8125,26.59375 L 55.5625,26.59375 C 52.9573,26.59375 50.3597,27.94675 48.78125,30.15625 C 48.6236,29.2885 48.39295,28.80245 48.15625,28.25 C 47.60365,27.30305 47.0308,26.59375 45.53125,26.59375 L 2.21875,26.59375 z M 0,40.71875 C 0.31582,53.26895 6.4047,64.16263 15.71875,71.1875 L 15.78125,71.1875 C 21.6224,61.00572 26.3615,52.7137 32.28125,42.53125 C 32.83385,41.5843 32.5885,40.8125 31.5625,40.8125 L 0,40.71875 z M 58.5625,40.8125 C 55.87885,40.8125 54.7036,41.83105 53.125,44.59375 C 46.02115,56.5909 38.6026,69.13867 33.15625,78.53125 L 33.15625,78.625 C 35.20825,78.94024 37.32115,79.15625 39.53125,79.15625 C 60.92155,79.15625 78.4627,62.0444 79.09375,40.8125 L 58.5625,40.8125 z" id="FlyingT"/></svg>