<svg width="24" height="24" viewBox="0 0 24 24" fill="none" xmlns="http://www.w3.org/2000/svg">
<path d="M19.5 0C20.7396 0 21.7995 0.440104 22.6797 1.32031C23.5599 2.20052 24 3.26042 24 4.5V19.5C24 20.7396 23.5599 21.7995 22.6797 22.6797C21.7995 23.5599 20.7396 24 19.5 24H4.5C3.26042 24 2.20052 23.5599 1.32031 22.6797C0.440104 21.7995 0 20.7396 0 19.5V4.5C0 3.26042 0.440104 2.20052 1.32031 1.32031C2.20052 0.440104 3.26042 0 4.5 0H19.5ZM10.9062 12C10.9062 11.0833 10.5833 10.3021 9.9375 9.65625C9.29167 9.01042 8.51042 8.6875 7.59375 8.6875C6.67708 8.6875 5.89583 9.01042 5.25 9.65625C4.60417 10.3021 4.28125 11.0833 4.28125 12C4.28125 12.9167 4.60417 13.6979 5.25 14.3438C5.89583 14.9896 6.67708 15.3125 7.59375 15.3125C8.51042 15.3125 9.29167 14.9896 9.9375 14.3438C10.5833 13.6979 10.9062 12.9167 10.9062 12ZM19.7188 12C19.7188 11.0833 19.3958 10.3021 18.75 9.65625C18.1042 9.01042 17.3229 8.6875 16.4062 8.6875C15.4896 8.6875 14.7083 9.01042 14.0625 9.65625C13.4167 10.3021 13.0938 11.0833 13.0938 12C13.0938 12.9167 13.4167 13.6979 14.0625 14.3438C14.7083 14.9896 15.4896 15.3125 16.4062 15.3125C17.3229 15.3125 18.1042 14.9896 18.75 14.3438C19.3958 13.6979 19.7188 12.9167 19.7188 12Z" fill="#1D252D"/>
</svg>
