<svg width="24" height="24" viewBox="0 0 24 24" fill="none" xmlns="http://www.w3.org/2000/svg">
<path d="M7.99554 5.73351V21.2084C7.99554 21.4283 7.93973 21.6152 7.82813 21.7691C7.71652 21.923 7.55357 22 7.33929 22C7.1875 22 7.04018 21.9648 6.89732 21.8945L0.669643 18.8206C0.482143 18.7326 0.323661 18.5853 0.194196 18.3786C0.0647321 18.1719 0 17.9675 0 17.7652V2.72559C0 2.54969 0.0446429 2.40018 0.133929 2.27704C0.223214 2.15391 0.352679 2.09235 0.522321 2.09235C0.647321 2.09235 0.84375 2.15831 1.11161 2.29024L7.95536 5.66755C7.98214 5.69393 7.99554 5.71592 7.99554 5.73351ZM8.85268 7.06596L16.0045 18.4908L8.85268 14.9815V7.06596ZM24 7.30343V21.2084C24 21.4283 23.9375 21.6064 23.8125 21.7427C23.6875 21.8791 23.5179 21.9472 23.3036 21.9472C23.0893 21.9472 22.8795 21.8901 22.6741 21.7757L16.7679 18.8734L24 7.30343ZM23.9598 5.72032C23.9598 5.7467 22.8147 7.59147 20.5246 11.2546C18.2344 14.9178 16.8929 17.0616 16.5 17.686L11.2768 9.3219L15.6161 2.36939C15.7679 2.12313 16 2 16.3125 2C16.4375 2 16.5536 2.02639 16.6607 2.07916L23.9063 5.64116C23.942 5.65875 23.9598 5.68514 23.9598 5.72032Z" fill="#1D252D"/>
</svg>
