<svg width="24" height="24" viewBox="0 0 24 24" fill="none" xmlns="http://www.w3.org/2000/svg">
<path fill-rule="evenodd" clip-rule="evenodd" d="M3.91951 18.5994H3.96867C5.54182 18.5994 6.93799 17.739 7.90154 16.6439C8.86509 17.739 10.2613 18.5994 11.8344 18.5994C13.4076 18.5994 14.8037 17.739 15.7673 16.6439C16.7308 17.739 18.127 18.5994 19.7002 18.5994H19.7493L21.6076 12.0681C21.6863 11.8139 21.6666 11.5401 21.5486 11.3054C21.4306 11.0708 21.2143 10.8948 20.9587 10.8166H19.7002V5.88873C19.7002 4.81321 18.8153 3.93324 17.7337 3.93324H16.0132V1H7.65559V3.93324H5.9351C4.85356 3.93324 3.96867 4.81321 3.96867 5.88873V10.8166H2.70032C2.44468 10.8948 2.22837 11.0708 2.11038 11.3054C1.9924 11.5401 1.9629 11.8139 2.05139 12.0681L3.91951 18.5994ZM19.7002 20.5549C18.3335 20.5549 16.9668 20.0954 15.7673 19.2643C13.3682 20.9362 10.3006 20.9362 7.90154 19.2643C6.70201 20.0954 5.33534 20.5549 3.96867 20.5549H2.00223V22.5104H3.96867C5.32551 22.5104 6.66268 22.1682 7.90154 21.5424C10.3793 22.8037 13.2896 22.8037 15.7673 21.5424C17.0061 22.178 18.3433 22.5104 19.7002 22.5104H21.6666V20.5549H19.7002ZM6.91665 12.6771C6.57723 12.6771 6.30207 12.9522 6.30207 13.2916V15.1354C6.30207 15.4748 6.57723 15.75 6.91665 15.75H16.1354C16.4748 15.75 16.75 15.4748 16.75 15.1354V13.2916C16.75 12.9522 16.4748 12.6771 16.1354 12.6771H6.91665ZM5.68749 7.14582C5.68749 6.8064 5.96265 6.53124 6.30207 6.53124H7.53124C7.87066 6.53124 8.14582 6.8064 8.14582 7.14582V8.37499C8.14582 8.71441 7.87066 8.98957 7.53124 8.98957H6.30207C5.96265 8.98957 5.68749 8.71441 5.68749 8.37499V7.14582ZM9.37498 6.53124C9.03556 6.53124 8.7604 6.8064 8.7604 7.14582V8.37499C8.7604 8.71441 9.03556 8.98957 9.37498 8.98957H10.6041C10.9436 8.98957 11.2187 8.71441 11.2187 8.37499V7.14582C11.2187 6.8064 10.9436 6.53124 10.6041 6.53124H9.37498ZM12.4479 7.14582C12.4479 6.8064 12.723 6.53124 13.0625 6.53124H14.2916C14.6311 6.53124 14.9062 6.8064 14.9062 7.14582V8.37499C14.9062 8.71441 14.6311 8.98957 14.2916 8.98957H13.0625C12.723 8.98957 12.4479 8.71441 12.4479 8.37499V7.14582ZM16.1354 6.53124C15.796 6.53124 15.5208 6.8064 15.5208 7.14582V8.37499C15.5208 8.71441 15.796 8.98957 16.1354 8.98957H17.3646C17.704 8.98957 17.9791 8.71441 17.9791 8.37499V7.14582C17.9791 6.8064 17.704 6.53124 17.3646 6.53124H16.1354Z" fill="#1D252D"/>
</svg>
