<svg width="24" height="24" viewBox="0 0 24 24" fill="none" xmlns="http://www.w3.org/2000/svg">
<path d="M8 18C8 17.4479 7.80469 16.9766 7.41406 16.5859C7.02344 16.1953 6.55208 16 6 16C5.44792 16 4.97656 16.1953 4.58594 16.5859C4.19531 16.9766 4 17.4479 4 18C4 18.5521 4.19531 19.0234 4.58594 19.4141C4.97656 19.8047 5.44792 20 6 20C6.55208 20 7.02344 19.8047 7.41406 19.4141C7.80469 19.0234 8 18.5521 8 18ZM13.4844 19.4688C13.349 17.0417 12.4297 14.9766 10.7266 13.2734C9.02344 11.5703 6.95833 10.651 4.53125 10.5156C4.38542 10.5052 4.26042 10.5521 4.15625 10.6562C4.05208 10.7604 4 10.8802 4 11.0156V13.0156C4 13.151 4.04427 13.2656 4.13281 13.3594C4.22135 13.4531 4.33333 13.5052 4.46875 13.5156C6.07292 13.6302 7.44792 14.2604 8.59375 15.4062C9.73958 16.5521 10.3698 17.9271 10.4844 19.5312C10.4948 19.6667 10.5469 19.7786 10.6406 19.8672C10.7344 19.9557 10.849 20 10.9844 20H12.9844C13.1198 20 13.2396 19.9479 13.3438 19.8438C13.4479 19.7396 13.4948 19.6146 13.4844 19.4688ZM19.4844 19.4844C19.4323 17.8802 19.1406 16.3307 18.6094 14.8359C18.0781 13.3411 17.3516 11.987 16.4297 10.7734C15.5078 9.5599 14.4401 8.49219 13.2266 7.57031C12.013 6.64844 10.6589 5.92188 9.16406 5.39062C7.66927 4.85938 6.11979 4.56771 4.51562 4.51562C4.36979 4.50521 4.25 4.55208 4.15625 4.65625C4.05208 4.76042 4 4.88021 4 5.01562V7.01562C4 7.15104 4.04688 7.26562 4.14062 7.35938C4.23438 7.45312 4.34896 7.50521 4.48438 7.51562C6.60938 7.58854 8.57812 8.16927 10.3906 9.25781C12.2031 10.3464 13.6536 11.7969 14.7422 13.6094C15.8307 15.4219 16.4115 17.3906 16.4844 19.5156C16.4948 19.651 16.5469 19.7656 16.6406 19.8594C16.7344 19.9531 16.849 20 16.9844 20H18.9844C19.1198 20 19.2396 19.9479 19.3438 19.8438C19.4583 19.75 19.5052 19.6302 19.4844 19.4844ZM24 4.5V19.5C24 20.7396 23.5599 21.7995 22.6797 22.6797C21.7995 23.5599 20.7396 24 19.5 24H4.5C3.26042 24 2.20052 23.5599 1.32031 22.6797C0.440104 21.7995 0 20.7396 0 19.5V4.5C0 3.26042 0.440104 2.20052 1.32031 1.32031C2.20052 0.440104 3.26042 0 4.5 0H19.5C20.7396 0 21.7995 0.440104 22.6797 1.32031C23.5599 2.20052 24 3.26042 24 4.5Z" fill="#1D252D"/>
</svg>
