<svg width="24" height="24" viewBox="0 0 24 24" fill="none" xmlns="http://www.w3.org/2000/svg">
<path d="M14.3594 18.3594V15.9062C14.3594 15.3854 14.2083 15.125 13.9062 15.125C13.7292 15.125 13.5573 15.2083 13.3906 15.375V18.875C13.5573 19.0417 13.7292 19.125 13.9062 19.125C14.2083 19.125 14.3594 18.8698 14.3594 18.3594ZM17.2344 16.4531H18.2656V15.9219C18.2656 15.3906 18.0938 15.125 17.75 15.125C17.4062 15.125 17.2344 15.3906 17.2344 15.9219V16.4531ZM8.3125 12.2969V13.3906H7.0625V20H5.90625V13.3906H4.6875V12.2969H8.3125ZM11.4531 14.2656V20H10.4062V19.375C10 19.8438 9.60417 20.0781 9.21875 20.0781C8.875 20.0781 8.65625 19.9323 8.5625 19.6406C8.5 19.4635 8.46875 19.1823 8.46875 18.7969V14.2656H9.5V18.4844C9.5 18.7344 9.50521 18.8698 9.51562 18.8906C9.52604 19.0469 9.60417 19.125 9.75 19.125C9.95833 19.125 10.1771 18.9635 10.4062 18.6406V14.2656H11.4531ZM15.3906 16V18.2812C15.3906 18.8229 15.3542 19.2031 15.2812 19.4219C15.1562 19.8594 14.8802 20.0781 14.4531 20.0781C14.0885 20.0781 13.7344 19.8646 13.3906 19.4375V20H12.3438V12.2969H13.3906V14.8125C13.724 14.3958 14.0781 14.1875 14.4531 14.1875C14.8802 14.1875 15.1562 14.4062 15.2812 14.8438C15.3542 15.0625 15.3906 15.4479 15.3906 16ZM19.3125 18.0156V18.1562C19.3125 18.4583 19.3021 18.6823 19.2812 18.8281C19.25 19.0573 19.1719 19.2656 19.0469 19.4531C18.7656 19.8698 18.349 20.0781 17.7969 20.0781C17.2552 20.0781 16.8333 19.8802 16.5312 19.4844C16.3125 19.2031 16.2031 18.7552 16.2031 18.1406V16.125C16.2031 15.5104 16.3073 15.0625 16.5156 14.7812C16.8177 14.3854 17.2344 14.1875 17.7656 14.1875C18.2969 14.1875 18.7031 14.3854 18.9844 14.7812C19.2031 15.0833 19.3125 15.5312 19.3125 16.125V17.3125H17.2344V18.3281C17.2344 18.8594 17.4115 19.125 17.7656 19.125C18.0156 19.125 18.1719 18.9896 18.2344 18.7188C18.2344 18.7083 18.237 18.6719 18.2422 18.6094C18.2474 18.5469 18.25 18.4609 18.25 18.3516V18.0156H19.3125ZM12.2656 5.14062V7.57812C12.2656 8.10938 12.099 8.375 11.7656 8.375C11.4323 8.375 11.2656 8.10938 11.2656 7.57812V5.14062C11.2656 4.59896 11.4323 4.32812 11.7656 4.32812C12.099 4.32812 12.2656 4.59896 12.2656 5.14062ZM20.5938 16.2812C20.5938 14.4375 20.4948 13.0833 20.2969 12.2188C20.1927 11.7604 19.9688 11.3776 19.625 11.0703C19.2812 10.763 18.8854 10.5833 18.4375 10.5312C17.0208 10.375 14.875 10.2969 12 10.2969C9.13542 10.2969 6.99479 10.375 5.57812 10.5312C5.11979 10.5833 4.72135 10.763 4.38281 11.0703C4.04427 11.3776 3.82292 11.7604 3.71875 12.2188C3.51042 13.125 3.40625 14.4792 3.40625 16.2812C3.40625 18.1146 3.51042 19.4688 3.71875 20.3438C3.82292 20.7917 4.04427 21.1719 4.38281 21.4844C4.72135 21.7969 5.11458 21.9792 5.5625 22.0312C6.98958 22.1875 9.13542 22.2656 12 22.2656C14.8646 22.2656 17.0104 22.1875 18.4375 22.0312C18.8854 21.9792 19.2786 21.7969 19.6172 21.4844C19.9557 21.1719 20.1771 20.7917 20.2812 20.3438C20.4896 19.4688 20.5938 18.1146 20.5938 16.2812ZM8.79688 6.10938L10.2031 1.48438H9.03125L8.23438 4.53125L7.40625 1.48438H6.1875C6.26042 1.72396 6.38021 2.08333 6.54688 2.5625L6.92188 3.64062C7.28646 4.71354 7.52604 5.53646 7.64062 6.10938V9.25H8.79688V6.10938ZM13.3125 7.375V5.34375C13.3125 4.73958 13.2031 4.28646 12.9844 3.98438C12.6823 3.58854 12.276 3.39062 11.7656 3.39062C11.2344 3.39062 10.8281 3.58854 10.5469 3.98438C10.3281 4.28646 10.2188 4.73958 10.2188 5.34375V7.375C10.2188 7.97917 10.3281 8.43229 10.5469 8.73438C10.8281 9.13021 11.2344 9.32812 11.7656 9.32812C12.276 9.32812 12.6823 9.13021 12.9844 8.73438C13.2031 8.45312 13.3125 8 13.3125 7.375ZM16.1406 9.25H17.1875V3.46875H16.1406V7.89062C15.9115 8.21354 15.6927 8.375 15.4844 8.375C15.3281 8.375 15.2448 8.29167 15.2344 8.125C15.224 8.10417 15.2188 7.96875 15.2188 7.71875V3.46875H14.1719V8.04688C14.1719 8.43229 14.2031 8.71875 14.2656 8.90625C14.3802 9.1875 14.6042 9.32812 14.9375 9.32812C15.3125 9.32812 15.7135 9.09375 16.1406 8.625V9.25ZM24 4.5V19.5C24 20.7396 23.5599 21.7995 22.6797 22.6797C21.7995 23.5599 20.7396 24 19.5 24H4.5C3.26042 24 2.20052 23.5599 1.32031 22.6797C0.440104 21.7995 0 20.7396 0 19.5V4.5C0 3.26042 0.440104 2.20052 1.32031 1.32031C2.20052 0.440104 3.26042 0 4.5 0H19.5C20.7396 0 21.7995 0.440104 22.6797 1.32031C23.5599 2.20052 24 3.26042 24 4.5Z" fill="#1D252D"/>
</svg>
