<svg width="24" height="24" viewBox="0 0 24 24" fill="none" xmlns="http://www.w3.org/2000/svg">
<path fill-rule="evenodd" clip-rule="evenodd" d="M10.8293 7C10.4175 8.16519 9.30622 9 8 9C6.69378 9 5.58254 8.16519 5.17071 7H3V5H5.17071C5.58254 3.83481 6.69378 3 8 3C9.30622 3 10.4175 3.83481 10.8293 5H21V7H10.8293ZM7.17071 19H3V17H7.17071C7.58254 15.8348 8.69378 15 10 15C11.3062 15 12.4175 15.8348 12.8293 17H21V19H12.8293C12.4175 20.1652 11.3062 21 10 21C8.69378 21 7.58254 20.1652 7.17071 19ZM21 13H18.8293C18.4175 14.1652 17.3062 15 16 15C14.6938 15 13.5825 14.1652 13.1707 13H3V11H13.1707C13.5825 9.83481 14.6938 9 16 9C17.3062 9 18.4175 9.83481 18.8293 11H21V13Z" fill="#1D252D"/>
</svg>
