<svg width="24" height="24" viewBox="0 0 24 24" fill="none" xmlns="http://www.w3.org/2000/svg">
<g clip-path="url(#clip0)">
<path d="M15.3095 8.68974C18.1101 11.4933 18.0717 15.9881 15.3263 18.7486C15.3212 18.7543 15.3151 18.7604 15.3095 18.766L12.1595 21.916C9.38119 24.6943 4.86108 24.6939 2.08322 21.916C-0.695059 19.1382 -0.695059 14.6176 2.08322 11.8397L3.82257 10.1004C4.28382 9.63914 5.07816 9.94571 5.10197 10.5976C5.13235 11.4283 5.28132 12.2629 5.55619 13.0688C5.64929 13.3418 5.58277 13.6436 5.37886 13.8475L4.76541 14.461C3.45169 15.7747 3.41049 17.9138 4.71127 19.2404C6.02489 20.58 8.18405 20.588 9.50775 19.2643L12.6578 16.1147C13.9792 14.7933 13.9737 12.6574 12.6578 11.3415C12.4843 11.1683 12.3095 11.0338 12.173 10.9398C12.0765 10.8735 11.9967 10.7855 11.9402 10.6829C11.8836 10.5803 11.8519 10.4659 11.8474 10.3489C11.8288 9.85355 12.0043 9.34313 12.3957 8.95172L13.3826 7.96477C13.6414 7.70597 14.0474 7.67419 14.3475 7.88363C14.6912 8.12361 15.0131 8.39335 15.3095 8.68974ZM21.9158 2.08308C19.1379 -0.694824 14.6178 -0.695199 11.8396 2.08308L8.68955 5.23308C8.68393 5.23871 8.67783 5.2448 8.67268 5.25043C5.92739 8.01099 5.88891 12.5058 8.68955 15.3093C8.98593 15.6057 9.30781 15.8754 9.65147 16.1154C9.95157 16.3248 10.3576 16.293 10.6163 16.0343L11.6033 15.0473C11.9947 14.6559 12.1702 14.1455 12.1516 13.6501C12.1471 13.5331 12.1153 13.4187 12.0588 13.3161C12.0023 13.2135 11.9225 13.1255 11.826 13.0592C11.6895 12.9653 11.5147 12.8307 11.3412 12.6576C10.0253 11.3416 10.0198 9.20574 11.3412 7.88428L14.4912 4.73475C15.8149 3.41105 17.974 3.41902 19.2877 4.75866C20.5885 6.08522 20.5473 8.22432 19.2336 9.53804L18.6201 10.1515C18.4162 10.3554 18.3497 10.6573 18.4428 10.9302C18.7177 11.7361 18.8666 12.5708 18.897 13.4015C18.9209 14.0533 19.7152 14.3599 20.1764 13.8986L21.9158 12.1593C24.6941 9.38152 24.6941 4.86089 21.9158 2.08308Z" fill="#1D252D"/>
</g>
<defs>
<clipPath id="clip0">
<rect width="24" height="24" fill="white"/>
</clipPath>
</defs>
</svg>
