<svg width="24" height="24" viewBox="0 0 24 24" fill="none" xmlns="http://www.w3.org/2000/svg">
<g clip-path="url(#clip0)">
<path d="M16.9701 10.0438L16.3965 4.5H18.375C18.9963 4.5 19.5 3.99633 19.5 3.375V1.125C19.5 0.503672 18.9963 0 18.375 0H5.625C5.00367 0 4.5 0.503672 4.5 1.125V3.375C4.5 3.99633 5.00367 4.5 5.625 4.5H7.60345L7.02994 10.0438C4.75617 11.1009 3 12.9966 3 15.375C3 15.9963 3.50367 16.5 4.125 16.5H10.5V21.3753C10.5 21.4335 10.5135 21.491 10.5396 21.543L11.6646 23.793C11.8025 24.0688 12.1973 24.0693 12.3354 23.793L13.4604 21.543C13.4865 21.491 13.5 21.4335 13.5 21.3753V16.5H19.875C20.4964 16.5 21 15.9963 21 15.375C21 12.9758 19.2196 11.0897 16.9701 10.0438Z" fill="#1D252D"/>
</g>
<defs>
<clipPath id="clip0">
<rect width="24" height="24" fill="white"/>
</clipPath>
</defs>
</svg>
