<svg width="24" height="24" viewBox="0 0 24 24" fill="none" xmlns="http://www.w3.org/2000/svg">
<path d="M12.683 14.763L10.397 12.504L10.424 12.477C11.99 10.731 13.106 8.724 13.763 6.6H16.4V4.8H10.1V3H8.3V4.8H2V6.591H12.053C11.45 8.328 10.496 9.975 9.2 11.415C8.363 10.488 7.67 9.471 7.121 8.4H5.321C5.978 9.867 6.878 11.253 8.003 12.504L3.422 17.022L4.7 18.3L9.2 13.8L11.999 16.599L12.683 14.763ZM17.75 10.2H15.95L11.9 21H13.7L14.708 18.3H18.983L20 21H21.8L17.75 10.2ZM15.392 16.5L16.85 12.603L18.308 16.5H15.392Z" fill="#1D252D"/>
</svg>
