<svg width="16" height="16" viewBox="0 0 16 16" fill="none" xmlns="http://www.w3.org/2000/svg">
<path d="M15.75 8C15.75 3.71875 12.2812 0.25 8 0.25C3.71875 0.25 0.25 3.71875 0.25 8C0.25 12.2812 3.71875 15.75 8 15.75C12.2812 15.75 15.75 12.2812 15.75 8Z" fill="#97D700"/>
<path fill-rule="evenodd" clip-rule="evenodd" d="M6.46667 5.4C6.20893 5.14227 6.20893 4.7244 6.46667 4.46667C6.7244 4.20893 7.14227 4.20893 7.4 4.46667L10.2262 7.29289C10.6168 7.68342 10.6168 8.31658 10.2262 8.70711L7.4 11.5333C7.14227 11.7911 6.7244 11.7911 6.46667 11.5333C6.20893 11.2756 6.20893 10.8577 6.46667 10.6L9.06667 8L6.46667 5.4Z" fill="#007B5F" stroke="#007B5F"/>
</svg>
