<svg width="24" height="24" viewBox="0 0 24 24" fill="none" xmlns="http://www.w3.org/2000/svg">
<path fill-rule="evenodd" clip-rule="evenodd" d="M13.4142 1.41422C12.6332 0.633168 11.3668 0.633168 10.5858 1.41422L1.41422 10.5858C1.36742 10.6326 1.32342 10.6811 1.28223 10.7312C1.34921 10.7031 1.42279 10.6875 1.5 10.6875C3.61047 10.6875 4.81991 10.13 5.48818 9.62593C5.79898 9.39149 6.00222 9.16156 6.12857 8.98877V8C6.12857 7.57396 6.47395 7.22858 6.9 7.22858C7.32605 7.22858 7.67143 7.57396 7.67143 8V9.181C8.02484 9.64485 8.50439 10.0524 9.08791 10.3685C9.88799 10.8019 10.8374 11.0375 11.8154 11.0375C12.7934 11.0375 13.7428 10.8019 14.5428 10.3685C15.1654 10.0313 15.6696 9.5899 16.0286 9.08716V8C16.0286 7.57396 16.3739 7.22858 16.8 7.22858C17.226 7.22858 17.5714 7.57396 17.5714 8V9.04618C17.7115 9.20455 17.9226 9.40174 18.2325 9.60398C18.9766 10.0898 20.3218 10.6247 22.6763 10.6824C22.6474 10.6494 22.6172 10.6172 22.5858 10.5858L13.4142 1.41422ZM1.41422 13.4142C0.850795 12.8508 0.693807 12.0349 0.94325 11.3307C0.982391 11.6031 1.21675 11.8125 1.5 11.8125C3.78833 11.8125 5.23596 11.2119 6.12857 10.5518V13.3H3.3C2.74772 13.3 2.3 13.7477 2.3 14.3L1.41422 13.4142ZM7.67143 13.3V10.775C7.94197 10.9918 8.23685 11.187 8.55209 11.3577C9.40093 11.8175 10.3721 12.0871 11.3717 12.1488L11.3596 13.3H7.67143ZM12.4846 13.3H16.0286V10.7186C15.7393 10.9581 15.421 11.1723 15.0787 11.3577C14.2973 11.781 13.4123 12.043 12.4969 12.1302L12.4846 13.3ZM17.5714 13.3V10.5156L17.6175 10.546C18.6298 11.2068 20.3187 11.8125 23.1 11.8125C23.1211 11.8125 23.142 11.8113 23.1625 11.8091C23.2172 12.3825 23.0249 12.9751 22.5858 13.4142L22.1784 13.8216C22.0087 13.5108 21.679 13.3 21.3 13.3H17.5714ZM20.7 15.3H17.5714V18.4286L20.7 15.3ZM16.0286 15.3L7.67143 15.3V19.6714L10.5858 22.5858C11.3668 23.3668 12.6332 23.3668 13.4142 22.5858L16.0286 19.9714V15.3ZM6.12857 15.3H3.3L6.12857 18.1286V15.3Z" fill="#1D252D"/>
<rect x="12" y="0.707107" width="15.9706" height="15.9706" rx="1.5" transform="rotate(45 12 0.707107)" stroke="#1D252D"/>
</svg>
