<svg width="24" height="24" viewBox="0 0 24 24" fill="none" xmlns="http://www.w3.org/2000/svg">
<path fill-rule="evenodd" clip-rule="evenodd" d="M10.5858 1.41422C11.3668 0.633168 12.6332 0.633168 13.4142 1.41422L22.5858 10.5858C23.3668 11.3668 23.3668 12.6332 22.5858 13.4142L13.4142 22.5858C12.6332 23.3668 11.3668 23.3668 10.5858 22.5858L1.41422 13.4142C0.633168 12.6332 0.633168 11.3668 1.41422 10.5858L10.5858 1.41422ZM16.3661 8.23572C16.0018 6.38751 14.3786 5 12.4286 5C10.8804 5 9.53572 5.87858 8.86608 7.16429C7.25358 7.33572 6 8.70179 6 10.3572C6 12.1304 7.44108 13.5714 9.21429 13.5714H16.1786C17.6572 13.5714 18.8572 12.3714 18.8572 10.8929C18.8572 9.47858 17.759 8.33215 16.3661 8.23572ZM9.75005 17.3215C9.15897 17.3215 8.67862 16.8129 8.67862 16.187C8.67862 15.3362 9.75005 14.1072 9.75005 14.1072C9.75005 14.1072 10.8215 15.3362 10.8215 16.187C10.8215 16.8129 10.3411 17.3215 9.75005 17.3215ZM14.0357 16.187C14.0357 16.8129 14.5161 17.3215 15.1072 17.3215C15.6982 17.3215 16.1786 16.8129 16.1786 16.187C16.1786 15.3362 15.1072 14.1072 15.1072 14.1072C15.1072 14.1072 14.0357 15.3362 14.0357 16.187ZM12.4286 20C11.8375 20 11.3571 19.4914 11.3571 18.8655C11.3571 18.0147 12.4286 16.7857 12.4286 16.7857C12.4286 16.7857 13.5 18.0147 13.5 18.8655C13.5 19.4914 13.0196 20 12.4286 20Z" fill="#1D252D"/>
</svg>
