<svg xmlns="http://www.w3.org/2000/svg" xml:space="preserve" width="43.22" height="43.261">
    <path fill="#007b5f"
        d="M43.22 22.299c-.345 11.603-9.92 20.962-21.609 20.962-1.208 0-2.373-.129-3.494-.302v-.043c2.976-5.133 7.031-11.99 10.913-18.547.863-1.51 1.51-2.07 2.977-2.07zM0 22.256c.173 6.858 3.494 12.811 8.583 16.649h.043c3.192-5.564 5.78-10.094 9.015-15.657.302-.518.173-.949-.388-.949zm2.286-10.395C5.866 4.831 13.156 0 21.567 0s15.744 4.831 19.281 11.861H30.582c-1.294 0-2.329.388-2.976 1.251-.215-.647-.561-1.251-1.38-1.251zm8.67 28.64c1.337.732 2.76 1.38 4.271 1.812l.043-.087c2.933-4.96 7.807-13.241 11.991-20.315 1.165-1.94 2.458-2.674 4.486-2.674h11.301c-.172-1.639-.561-3.191-1.078-4.701H30.366c-1.423 0-2.847.733-3.709 1.941-.086-.475-.216-.733-.345-1.036-.302-.517-.604-.906-1.423-.906H1.208C.69 16.045.302 17.598.129 19.236h20.187c2.027 0 1.38 2.761.345 4.529-3.235 5.564-6.513 11.172-9.705 16.736z" />
</svg>