<svg xmlns="http://www.w3.org/2000/svg" xml:space="preserve" width="267.467" height="43.261">
    <path d="M172.596 20.601c.066-.411.223-.725.471-.941.248-.217.588-.327 1.018-.329.379.009.684.133.914.373.23.239.35.538.355.897zm5.525 1.499c.008-1.48-.334-2.618-1.023-3.413-.691-.795-1.783-1.196-3.275-1.205-.803.009-1.502.19-2.098.546a3.73 3.73 0 0 0-1.391 1.433c-.332.6-.5 1.271-.504 2.014.006.842.193 1.557.561 2.144a3.56 3.56 0 0 0 1.504 1.341c.637.308 1.361.462 2.176.464.877.002 1.668-.191 2.371-.583.703-.391 1.209-.992 1.52-1.806h-2.695a1.105 1.105 0 0 1-.518.406 1.83 1.83 0 0 1-.693.133c-.451-.007-.801-.146-1.047-.414-.248-.268-.389-.621-.426-1.06zm-10.004-6.732h-2.885v2.303h-1.283v1.776h1.283v3.616c.01.679.141 1.18.396 1.505.256.323.578.532.969.627.393.094.795.136 1.213.125.309-.003.621-.018.936-.043.316-.026.621-.04.916-.044v-2.185a4.997 4.997 0 0 1-.656.044c-.355.002-.596-.078-.719-.24-.123-.163-.18-.418-.17-.766v-2.64h1.545V17.67h-1.545zm-7.332 7.17c-.027.395-.152.689-.375.886-.223.197-.5.296-.836.296-.268-.008-.482-.081-.648-.219-.166-.139-.25-.299-.256-.481.002-.248.084-.43.248-.545.166-.115.408-.206.73-.271.197-.042.393-.093.584-.149.193-.057.377-.129.553-.215zm2.768-2.099a5.053 5.053 0 0 0-.127-1.415c-.105-.448-.414-.814-.922-1.1-.508-.286-1.354-.433-2.535-.443a9.582 9.582 0 0 0-1.352.087 4.343 4.343 0 0 0-1.229.35 2.243 2.243 0 0 0-.918.751c-.234.331-.365.759-.393 1.287h2.68c-.004-.172.066-.341.211-.506.146-.166.436-.254.869-.266.244-.002.459.05.648.158.189.109.289.289.299.542-.008.234-.09.396-.246.488a1.473 1.473 0 0 1-.541.183c-.379.062-.809.123-1.289.184-.48.061-.945.166-1.398.313a2.57 2.57 0 0 0-1.123.711c-.295.324-.449.782-.459 1.372.02.79.281 1.37.787 1.739.504.369 1.129.552 1.879.548.471.006.916-.057 1.338-.189.42-.132.785-.37 1.098-.713h.029c-.008.105-.002.225.018.356.018.132.047.25.084.356h2.941a2.066 2.066 0 0 1-.295-.812 5.56 5.56 0 0 1-.055-.878v-3.103zm-35.336 4.794h2.884V21.24c.018-.59.147-.984.391-1.183.244-.199.497-.29.762-.275.41.007.673.146.792.416.118.27.17.626.157 1.072v3.964h2.884v-5.188c-.023-.865-.286-1.509-.788-1.932-.503-.423-1.104-.633-1.804-.632-.573.001-1.061.098-1.462.292-.402.193-.736.48-1.002.86H131v-.961h-2.782v7.56zm12.383-3.497c.021.824.207 1.486.561 1.987.352.5.783.877 1.295 1.131a5.46 5.46 0 0 0 1.51.509c.496.085.9.124 1.209.118a7.538 7.538 0 0 0 2.277-.327 3.912 3.912 0 0 0 1.801-1.124c.471-.524.715-1.235.73-2.133-.008-.632-.152-1.144-.432-1.537a2.985 2.985 0 0 0-1.082-.931 6.893 6.893 0 0 0-1.414-.536c-.5-.131-.975-.249-1.424-.356a5.453 5.453 0 0 1-1.113-.375c-.293-.144-.453-.337-.48-.58.02-.284.158-.474.412-.568.254-.095.5-.139.74-.132.162 0 .328.02.496.061.166.041.316.108.451.202a.896.896 0 0 1 .311.334.798.798 0 0 1 .068.497h3.029c-.039-.84-.26-1.509-.662-2.007a3.34 3.34 0 0 0-1.568-1.071 6.473 6.473 0 0 0-2.111-.317 5.675 5.675 0 0 0-2.041.357 3.473 3.473 0 0 0-1.543 1.121c-.396.507-.6 1.161-.611 1.959.012.689.195 1.227.547 1.612.354.385.797.679 1.332.883a15.45 15.45 0 0 0 1.646.523c.877.239 1.477.435 1.795.586.318.152.469.355.451.609-.023.378-.18.632-.467.764a1.938 1.938 0 0 1-.861.185 2.488 2.488 0 0 1-.902-.145 1.05 1.05 0 0 1-.629-.614 1.802 1.802 0 0 1-.086-.315 2.154 2.154 0 0 1-.031-.37zm13.357-6.368h-2.885v2.303h-1.281v1.776h1.281v3.616c.01.679.143 1.18.396 1.505.256.323.578.532.971.627.391.094.795.136 1.211.125.309-.003.621-.018.938-.043.314-.026.621-.04.914-.044v-2.185a4.997 4.997 0 0 1-.656.044c-.355.002-.596-.078-.717-.24-.123-.163-.18-.418-.172-.766v-2.64h1.545V17.67h-1.545zm-26.407 6.077a4.35 4.35 0 0 0-.438-1.961c-.293-.598-.745-1.078-1.354-1.442-.609-.364-1.387-.551-2.333-.561-.946.01-1.723.197-2.332.561-.609.364-1.061.844-1.354 1.442a4.374 4.374 0 0 0-.438 1.961c-.002.71.144 1.364.438 1.964a3.42 3.42 0 0 0 1.354 1.448c.609.367 1.386.555 2.332.565.946-.011 1.723-.198 2.333-.565a3.426 3.426 0 0 0 1.354-1.448c.294-.599.44-1.254.438-1.964zm-2.883 0a3.96 3.96 0 0 1-.078.844 1.5 1.5 0 0 1-.354.728c-.179.199-.448.301-.808.31-.36-.009-.629-.111-.808-.31a1.505 1.505 0 0 1-.354-.728 3.954 3.954 0 0 1-.078-.844 3.92 3.92 0 0 1 .078-.841c.058-.285.175-.525.354-.72.179-.196.448-.297.808-.306.36.009.629.11.808.306.179.195.297.436.354.72.057.284.082.566.078.841zm-7.077-6.077h-2.884v2.303h-1.283v1.776h1.283v3.616c.009.679.142 1.18.396 1.505.255.323.579.532.97.627a4.64 4.64 0 0 0 1.212.125c.308-.003.62-.018.936-.043.316-.026.621-.04.915-.044v-2.185a4.997 4.997 0 0 1-.656.044c-.355.002-.595-.078-.718-.24-.123-.163-.18-.418-.171-.766v-2.64h1.545V17.67h-1.545zm-9.934 5.712c0-.413.102-.764.306-1.052.204-.287.51-.438.919-.45.422.01.737.154.944.433.207.277.311.629.31 1.056.005.289-.019.575-.07.859a1.43 1.43 0 0 1-.333.711c-.17.189-.43.288-.779.296-.507-.023-.853-.225-1.038-.604a2.68 2.68 0 0 1-.259-1.249zm5.29-3.409h-2.884v.917h-.029a1.7 1.7 0 0 0-.8-.843 2.585 2.585 0 0 0-1.183-.264c-.719.008-1.322.175-1.808.5a3.044 3.044 0 0 0-1.099 1.303 4.34 4.34 0 0 0-.371 1.811c-.001.685.113 1.303.343 1.856.23.555.584.996 1.062 1.325.478.328 1.088.497 1.829.505a2.486 2.486 0 0 0 1.162-.272c.342-.181.631-.438.866-.775h.029v.699c.003.219-.026.461-.087.729a1.65 1.65 0 0 1-.34.696c-.165.197-.402.301-.71.311a.836.836 0 0 1-.494-.179 1.516 1.516 0 0 1-.352-.376 8.025 8.025 0 0 1-.091-.136.916.916 0 0 1-.069-.126h-2.855c.098.673.345 1.192.742 1.56.396.366.878.62 1.445.76a6.936 6.936 0 0 0 1.763.2c1.163-.017 2.028-.218 2.594-.603.565-.386.935-.854 1.107-1.406.172-.553.25-1.088.233-1.604v-6.588zm-16.717 7.562h2.884V21.24c.017-.59.147-.984.39-1.183.243-.199.498-.29.763-.275.409.007.673.146.791.416s.17.626.157 1.072v3.964h2.884v-5.188c-.023-.865-.286-1.509-.789-1.932-.502-.423-1.104-.633-1.804-.632-.573.001-1.061.098-1.462.292-.402.193-.736.48-1.003.86h-.029v-.961h-2.782zm-4.093 0h2.884v-7.562h-2.884Zm2.884-10.404h-2.884v2.024h2.884ZM82.132 19.87c-.038-.64-.245-1.133-.621-1.48a3.064 3.064 0 0 0-1.389-.719 6.783 6.783 0 0 0-1.662-.189 6.209 6.209 0 0 0-1.599.199 3.12 3.12 0 0 0-1.382.733c-.376.35-.572.84-.588 1.471-.009.643.231 1.154.719 1.533s1.278.659 2.369.843c.653.108 1.086.217 1.298.325.212.108.31.267.292.478-.017.216-.133.367-.347.455a1.572 1.572 0 0 1-.631.128 1.639 1.639 0 0 1-.463-.061.812.812 0 0 1-.31-.158 1.089 1.089 0 0 1-.252-.308.875.875 0 0 1-.098-.362h-2.753c.027.646.228 1.167.603 1.559a3.23 3.23 0 0 0 1.412.85c.567.174 1.154.26 1.759.257a6.69 6.69 0 0 0 1.813-.226c.583-.155 1.065-.428 1.444-.816.379-.39.576-.931.589-1.623-.015-.611-.196-1.081-.542-1.408a3.069 3.069 0 0 0-1.263-.707 10.409 10.409 0 0 0-1.449-.335c-.469-.071-.833-.154-1.088-.248a.793.793 0 0 1-.228-.142.331.331 0 0 1-.107-.251c.011-.241.105-.4.284-.477.179-.077.376-.113.591-.106.118 0 .232.018.343.055a.91.91 0 0 1 .299.164.806.806 0 0 1 .233.24.693.693 0 0 1 .102.328h2.622zm.936 5.363h2.884V21.24c.017-.59.147-.984.39-1.183.243-.199.497-.29.762-.275.41.007.673.146.792.416.118.27.17.626.157 1.072v3.964h2.884v-5.188c-.023-.865-.286-1.509-.788-1.932-.502-.423-1.104-.633-1.804-.632-.604.005-1.088.101-1.455.284a2.706 2.706 0 0 0-.908.721h-.029V14.83h-2.884v10.403ZM71.42 22.538c-.029.395-.154.689-.376.886-.222.197-.5.296-.835.296-.268-.008-.484-.081-.649-.219-.166-.139-.25-.299-.255-.481 0-.248.083-.43.248-.545.165-.115.408-.206.729-.271.198-.042.393-.093.585-.149a3.52 3.52 0 0 0 .553-.215zm2.768-2.099a5.053 5.053 0 0 0-.126-1.415c-.107-.448-.415-.814-.923-1.1-.508-.286-1.354-.433-2.535-.443a9.558 9.558 0 0 0-1.351.087 4.325 4.325 0 0 0-1.229.35 2.24 2.24 0 0 0-.917.751c-.235.331-.366.759-.394 1.287h2.68c-.004-.172.066-.341.211-.506.146-.166.435-.254.868-.266.244-.002.46.05.649.158.189.109.289.289.299.542-.008.234-.09.396-.246.488a1.472 1.472 0 0 1-.542.183c-.379.062-.809.123-1.289.184-.48.061-.946.166-1.399.313a2.564 2.564 0 0 0-1.123.711c-.296.324-.449.782-.46 1.372.02.79.282 1.37.787 1.739.505.369 1.131.552 1.879.548.471.006.917-.057 1.338-.189.421-.132.787-.37 1.098-.713h.029c-.007.105 0 .225.018.356a1.9 1.9 0 0 0 .084.356h2.942a2.036 2.036 0 0 1-.295-.812 5.443 5.443 0 0 1-.055-.878v-3.103ZM259.6 39.808h2.883v-3.993c.018-.59.148-.984.391-1.183.243-.199.498-.29.762-.275.41.008.674.146.791.416.119.27.172.626.158 1.07v3.965h2.883V34.62c-.023-.865-.285-1.509-.787-1.932-.502-.423-1.104-.633-1.805-.632-.572.001-1.061.098-1.463.291-.4.194-.734.48-1.002.86h-.029v-.962H259.6ZM67.309 14.829h-3.162l-1.297 6.513h-.029l-1.225-6.513h-2.827l-1.253 6.426h-.029l-1.268-6.426h-3.148l2.827 10.404h3.134l1.093-6.338h.029l1.122 6.338h3.119zm179.75 24.979h2.883v-7.563h-2.883zm2.882-10.405h-2.883v2.024h2.883zm8.991 6.617a4.363 4.363 0 0 0-.438-1.961 3.403 3.403 0 0 0-1.354-1.441c-.609-.364-1.387-.552-2.332-.562-.945.01-1.723.197-2.332.562a3.415 3.415 0 0 0-1.354 1.441 4.364 4.364 0 0 0-.439 1.961 4.4 4.4 0 0 0 .439 1.964c.293.6.744 1.082 1.354 1.449.609.366 1.387.554 2.332.564.945-.011 1.723-.198 2.332-.564.609-.367 1.061-.85 1.354-1.449.293-.599.44-1.255.438-1.964zm-2.883 0c.004.275-.021.557-.078.844a1.52 1.52 0 0 1-.355.728c-.178.197-.447.301-.807.31-.359-.009-.629-.112-.809-.31a1.501 1.501 0 0 1-.354-.728 4.026 4.026 0 0 1-.078-.844 3.974 3.974 0 0 1 .078-.841 1.49 1.49 0 0 1 .354-.721c.18-.195.449-.297.809-.305.359.008.629.109.807.305.18.196.297.437.355.721.056.284.082.564.078.841zm-11.082-6.078h-2.885v2.303h-1.281v1.776h1.281v3.616c.01.679.143 1.181.396 1.504.256.324.578.533.971.628a4.68 4.68 0 0 0 1.211.126c.309-.004.621-.019.938-.044.314-.025.619-.04.914-.044v-2.185a4.997 4.997 0 0 1-.656.044c-.355.002-.596-.078-.719-.241-.121-.161-.18-.417-.17-.765v-2.64h1.545v-1.776h-1.545zm-7.332 7.17c-.027.395-.152.689-.375.886-.221.197-.5.296-.834.296-.268-.008-.484-.08-.65-.219-.164-.139-.25-.299-.256-.481.002-.248.084-.43.248-.545.166-.115.408-.205.73-.271.197-.043.393-.092.586-.149.191-.058.375-.129.551-.215zm2.767-2.099a5.122 5.122 0 0 0-.125-1.414c-.107-.447-.414-.814-.924-1.101-.508-.285-1.354-.433-2.535-.442-.451-.004-.9.025-1.35.088a4.34 4.34 0 0 0-1.23.349 2.26 2.26 0 0 0-.918.753c-.234.329-.365.758-.393 1.286h2.68c-.004-.172.066-.341.213-.506.145-.165.434-.254.867-.267.244-.002.461.051.648.159.189.108.289.289.299.541-.008.234-.09.396-.246.488a1.479 1.479 0 0 1-.541.183c-.379.062-.809.123-1.289.184a7.57 7.57 0 0 0-1.398.313 2.58 2.58 0 0 0-1.121.71c-.297.325-.449.783-.461 1.374.02.79.281 1.369.787 1.738.504.369 1.131.552 1.879.548.471.006.918-.058 1.338-.189.42-.131.785-.37 1.098-.713h.029a2.002 2.002 0 0 0 .102.712h2.941a2.066 2.066 0 0 1-.295-.812 5.808 5.808 0 0 1-.055-.878zm-19.642 4.795h2.885V36.82c.002-.803.15-1.387.447-1.751.297-.364.73-.544 1.301-.538.285.002.512.021.678.057.168.036.322.081.459.134v-2.549a3.306 3.306 0 0 0-.844-.117c-.52.002-.947.122-1.283.36-.336.239-.619.585-.846 1.038h-.029v-1.209h-2.768zm9.945-9.866h-2.885v2.303h-1.281v1.776h1.281v3.616c.01.679.143 1.181.396 1.504.256.324.578.533.971.628a4.68 4.68 0 0 0 1.211.126c.309-.004.621-.019.938-.044.314-.025.619-.04.914-.044v-2.185a4.997 4.997 0 0 1-.656.044c-.355.002-.596-.078-.717-.241-.123-.161-.18-.417-.172-.765v-2.64h1.545v-1.776h-1.545zm-24.664 6.092c-.012-.475.07-.9.246-1.28.176-.379.518-.579 1.023-.601.506.021.846.222 1.021.601.176.38.258.806.246 1.28a2.79 2.79 0 0 1-.246 1.267c-.176.377-.516.577-1.021.6-.506-.022-.848-.223-1.023-.6a2.79 2.79 0 0 1-.246-1.267zm-2.781 6.222h2.883v-3.278h.029c.225.323.516.573.877.75.361.177.76.268 1.195.27.838-.016 1.49-.224 1.961-.625.469-.4.799-.9.986-1.498.188-.6.279-1.203.271-1.811 0-.646-.115-1.274-.348-1.882a3.625 3.625 0 0 0-1.053-1.508c-.471-.398-1.063-.604-1.775-.618-.689.013-1.189.122-1.502.33a2.438 2.438 0 0 0-.715.689h-.029v-.83h-2.781v10.011zm16.834-6.236a4.363 4.363 0 0 0-.438-1.961 3.403 3.403 0 0 0-1.354-1.441c-.609-.364-1.387-.552-2.334-.562-.945.01-1.723.197-2.332.562a3.415 3.415 0 0 0-1.354 1.441 4.374 4.374 0 0 0-.438 1.961c-.002.71.145 1.364.438 1.964.293.6.744 1.082 1.354 1.449.609.366 1.387.554 2.332.564.947-.011 1.725-.198 2.334-.564.609-.367 1.061-.85 1.354-1.449.293-.599.44-1.255.438-1.964zm-2.885 0c.006.275-.021.557-.078.844a1.51 1.51 0 0 1-.354.728c-.18.197-.447.301-.809.31-.359-.009-.629-.112-.807-.31a1.484 1.484 0 0 1-.354-.728 3.896 3.896 0 0 1-.078-.844 3.847 3.847 0 0 1 .078-.841c.057-.284.174-.524.354-.721.178-.195.447-.297.807-.305.361.008.629.109.809.305.178.196.297.437.354.721.057.284.084.564.078.841zm-31.182 3.788h2.885v-3.993c.018-.59.146-.984.391-1.183.242-.198.496-.29.762-.275.41.008.674.146.791.416.119.27.17.626.158 1.07v3.965h2.883V34.62c-.023-.865-.285-1.509-.789-1.932-.502-.423-1.104-.633-1.803-.632-.574.001-1.061.098-1.463.291-.402.194-.736.48-1.002.86h-.029v-.962h-2.783v7.563zm16.151-5.364c-.039-.64-.246-1.133-.621-1.48a3.059 3.059 0 0 0-1.389-.719 6.74 6.74 0 0 0-1.662-.189 6.216 6.216 0 0 0-1.6.199 3.118 3.118 0 0 0-1.383.733c-.375.351-.572.84-.588 1.471-.008.643.23 1.154.719 1.532.488.379 1.279.66 2.369.844.654.108 1.086.217 1.299.325.213.107.311.267.291.478-.016.216-.131.367-.346.455a1.586 1.586 0 0 1-.631.128 1.683 1.683 0 0 1-.463-.06.81.81 0 0 1-.311-.159 1.089 1.089 0 0 1-.252-.308.871.871 0 0 1-.098-.362h-2.754c.029.647.229 1.166.604 1.558.375.393.846.675 1.412.85a5.8 5.8 0 0 0 1.76.258 6.735 6.735 0 0 0 1.813-.225c.584-.156 1.066-.429 1.445-.817.379-.388.574-.931.588-1.623-.014-.611-.195-1.08-.541-1.407a3.07 3.07 0 0 0-1.264-.708c-.496-.151-.98-.264-1.449-.335-.469-.071-.832-.154-1.088-.247a.816.816 0 0 1-.229-.143.332.332 0 0 1-.107-.252c.012-.241.105-.4.285-.478.178-.077.375-.112.59-.105.119 0 .232.018.344.055a.94.94 0 0 1 .299.164.791.791 0 0 1 .232.24.698.698 0 0 1 .104.328h2.622zm-19.867 2.668c-.029.395-.154.689-.377.886-.221.197-.5.296-.834.296-.268-.008-.484-.08-.65-.219-.164-.139-.25-.299-.254-.481 0-.248.082-.43.248-.545.164-.115.408-.205.729-.271.197-.043.393-.092.586-.149.191-.058.377-.129.553-.215v.698zm2.767-2.099a5.121 5.121 0 0 0-.127-1.414c-.107-.447-.414-.814-.922-1.101-.51-.285-1.354-.433-2.537-.442-.451-.004-.9.025-1.35.088a4.34 4.34 0 0 0-1.23.349 2.255 2.255 0 0 0-.916.753c-.236.329-.367.758-.395 1.286h2.682c-.006-.172.066-.341.211-.506.145-.165.434-.254.867-.267.244-.002.461.051.65.159.188.108.287.289.299.541-.008.234-.09.396-.246.488a1.502 1.502 0 0 1-.543.183 37.44 37.44 0 0 1-1.287.184c-.48.061-.947.165-1.398.313a2.575 2.575 0 0 0-1.123.71c-.297.325-.449.783-.461 1.374.021.79.283 1.369.787 1.738s1.131.552 1.879.548c.471.006.918-.058 1.338-.189.42-.131.787-.37 1.098-.713h.029a2.002 2.002 0 0 0 .102.712h2.943a2.006 2.006 0 0 1-.295-.812 5.331 5.331 0 0 1-.055-.878zm-31.49 4.795h2.885v-5.786h1.457v-1.776h-1.516c-.025-.345.029-.583.166-.715.135-.134.377-.196.723-.19.117.003.232.016.35.04.118.024.232.045.35.063v-1.98a27.234 27.234 0 0 1-.648-.035c-.215-.014-.43-.022-.648-.023-.576-.01-1.063.031-1.463.122-.398.091-.75.288-1.057.592-.27.283-.441.615-.518.992a4.387 4.387 0 0 0-.08 1.136h-1.18v1.776h1.18v5.784zm11.795 0h3.203v-7.74h2.916v-2.665h-9.035v2.665h2.916zm6.135 0h2.885V36.82c.002-.803.15-1.387.447-1.751.297-.364.73-.544 1.301-.538.285.002.512.021.678.057.168.036.32.081.459.134v-2.549a3.306 3.306 0 0 0-.844-.117c-.52.002-.947.122-1.283.36-.336.239-.619.585-.846 1.038h-.029v-1.209h-2.768zm-19.37-3.788a4.363 4.363 0 0 0-.438-1.961 3.403 3.403 0 0 0-1.354-1.441c-.609-.364-1.387-.552-2.332-.562-.945.01-1.725.197-2.332.562a3.424 3.424 0 0 0-1.355 1.441 4.377 4.377 0 0 0-.438 1.961c-.002.71.145 1.364.438 1.964.295.6.746 1.082 1.355 1.449.607.366 1.387.554 2.332.564.945-.011 1.723-.198 2.332-.564.609-.367 1.061-.85 1.354-1.449.293-.599.44-1.255.438-1.964zm-2.884 0c.006.275-.02.557-.078.844a1.492 1.492 0 0 1-.354.728c-.178.197-.447.301-.807.31-.361-.009-.629-.112-.809-.31a1.501 1.501 0 0 1-.354-.728 3.896 3.896 0 0 1-.078-.844 3.847 3.847 0 0 1 .078-.841 1.49 1.49 0 0 1 .354-.721c.18-.195.447-.297.809-.305.359.008.629.109.807.305.18.196.297.437.354.721.058.284.084.564.078.841zm-23.973 3.788h2.884v-3.993c.017-.59.147-.984.39-1.183.243-.199.497-.29.762-.275.41.008.673.146.792.416.118.27.17.626.157 1.07v3.965h2.884V34.62c-.023-.865-.286-1.509-.789-1.932-.502-.423-1.104-.633-1.804-.632-.573.001-1.06.098-1.461.291-.402.194-.736.48-1.003.86h-.029v-.962h-2.782v7.563zm12.477-9.866h-2.885v2.303h-1.282v1.776h1.282v3.616c.01.679.142 1.181.396 1.504.256.324.578.533.97.628.392.094.796.136 1.212.126.309-.004.621-.019.937-.044.316-.025.62-.04.915-.044v-2.185a4.997 4.997 0 0 1-.656.044c-.355.002-.596-.078-.718-.241-.122-.161-.181-.417-.171-.765v-2.64h1.545v-1.776h-1.545zm-18.522 5.233c.066-.41.223-.725.471-.941.248-.216.587-.326 1.017-.328.378.009.683.133.914.372.23.239.349.538.355.897zm5.524 1.499c.009-1.48-.333-2.618-1.023-3.413-.69-.795-1.783-1.196-3.275-1.205-.802.009-1.5.19-2.097.546a3.745 3.745 0 0 0-1.391 1.433 4.16 4.16 0 0 0-.504 2.014c.007.843.195 1.558.562 2.145a3.57 3.57 0 0 0 1.504 1.342c.636.307 1.361.461 2.175.463.878.002 1.669-.192 2.372-.582.703-.392 1.209-.993 1.519-1.807h-2.695a1.1 1.1 0 0 1-.518.406 1.826 1.826 0 0 1-.693.133c-.452-.007-.802-.146-1.048-.413-.246-.269-.388-.622-.424-1.061h5.536zm-23.748-6.732h-2.884v2.303h-1.283v1.776h1.283v3.616c.009.679.141 1.181.396 1.504.255.324.578.533.969.628.391.094.795.136 1.212.126.308-.004.62-.019.936-.044.316-.025.621-.04.915-.044v-2.185a4.985 4.985 0 0 1-.656.044c-.356.002-.595-.078-.718-.241-.123-.161-.18-.417-.171-.765v-2.64h1.545v-1.776h-1.545v-2.302zm2.165 9.866h2.884v-4.096c-.005-.4.067-.725.215-.973s.402-.375.762-.383c.422.012.69.149.802.41.113.262.161.577.146.945v4.096h2.884v-4.096c-.005-.4.067-.725.215-.973s.402-.375.762-.383c.422.012.69.149.803.41.112.262.161.577.146.945v4.096h2.884v-5.188a3.004 3.004 0 0 0-.242-1.208 2.159 2.159 0 0 0-.818-.963c-.38-.252-.892-.384-1.533-.393-.622.014-1.115.108-1.479.287-.364.178-.631.36-.799.548-.168.188-.269.303-.303.345a1.936 1.936 0 0 0-.845-.874 2.513 2.513 0 0 0-1.194-.306 3.37 3.37 0 0 0-1.414.27c-.417.185-.772.493-1.065.925h-.029v-1.005h-2.782zm-11.964 0h2.884V36.82c.002-.803.151-1.387.448-1.751.297-.364.73-.544 1.301-.538.284.002.51.021.678.057.168.036.321.081.459.134v-2.549a3.32 3.32 0 0 0-.845-.117c-.519.002-.946.122-1.283.36-.336.239-.618.585-.845 1.038h-.029v-1.209h-2.768zm-37.219 0h4.634c1.81-.018 3.149-.488 4.021-1.411.872-.923 1.304-2.191 1.298-3.806a6.748 6.748 0 0 0-.445-2.511 4.155 4.155 0 0 0-1.488-1.915c-.689-.492-1.608-.746-2.758-.762h-5.261v10.405zm3.204-7.74h1.021c.761.019 1.322.185 1.684.497.362.313.596.662.7 1.048.104.385.151.696.139.934.008.34-.042.709-.15 1.107a2.081 2.081 0 0 1-.658 1.032c-.331.29-.825.441-1.481.456h-1.254v-5.074zm10.098 3.107c.065-.41.222-.725.47-.941.248-.216.587-.326 1.018-.328.378.009.683.133.913.372.23.239.349.538.355.897zm5.524 1.499c.008-1.48-.333-2.618-1.023-3.413-.691-.795-1.783-1.196-3.275-1.205-.802.009-1.501.19-2.098.546a3.752 3.752 0 0 0-1.391 1.433 4.16 4.16 0 0 0-.504 2.014c.008.843.195 1.558.562 2.145a3.57 3.57 0 0 0 1.504 1.342c.636.307 1.36.461 2.175.463.878.002 1.669-.192 2.372-.582.703-.392 1.209-.993 1.519-1.807h-2.695a1.105 1.105 0 0 1-.518.406 1.826 1.826 0 0 1-.693.133c-.453-.007-.802-.146-1.048-.413-.247-.269-.388-.622-.425-1.061h5.538zm3.842-.64c-.012-.475.07-.9.246-1.28.176-.379.517-.579 1.023-.601.506.021.847.222 1.022.601.176.38.258.806.246 1.28a2.79 2.79 0 0 1-.246 1.267c-.176.377-.517.577-1.022.6-.506-.022-.847-.223-1.023-.6a2.79 2.79 0 0 1-.246-1.267zm-2.782 6.222h2.884v-3.278h.029c.224.323.516.573.877.75.36.177.759.268 1.194.27.837-.016 1.491-.224 1.961-.625.47-.4.799-.9.987-1.498.188-.6.279-1.203.271-1.811 0-.646-.115-1.274-.347-1.882a3.627 3.627 0 0 0-1.054-1.508c-.47-.397-1.062-.604-1.775-.618-.688.013-1.189.122-1.502.33a2.421 2.421 0 0 0-.714.689h-.029v-.83H73.89Zm13.615-5.144c-.029.395-.154.689-.375.886-.222.197-.5.296-.835.296-.268-.008-.484-.08-.649-.219-.165-.139-.25-.299-.255-.481 0-.248.083-.43.248-.545.165-.115.408-.205.729-.271.198-.043.393-.092.585-.149a3.57 3.57 0 0 0 .552-.215zm2.767-2.099a5.046 5.046 0 0 0-.126-1.414c-.107-.447-.415-.814-.923-1.101-.508-.285-1.354-.433-2.535-.442a9.142 9.142 0 0 0-1.351.088 4.324 4.324 0 0 0-1.229.349 2.245 2.245 0 0 0-.917.753c-.235.329-.366.758-.393 1.286h2.68c-.004-.172.066-.341.212-.506.145-.165.435-.254.868-.267.244-.002.46.051.649.159.189.108.289.289.299.541-.008.234-.09.396-.246.488a1.49 1.49 0 0 1-.542.183c-.379.062-.809.123-1.289.184-.48.061-.946.165-1.399.313a2.583 2.583 0 0 0-1.122.71c-.296.325-.45.783-.46 1.374.02.79.282 1.369.786 1.738s1.131.552 1.879.548c.472.006.918-.058 1.338-.189.42-.131.786-.37 1.098-.713h.029c-.007.105 0 .225.019.356.019.131.046.25.083.356h2.942a2.036 2.036 0 0 1-.295-.812 5.56 5.56 0 0 1-.055-.878zM43.22 22.299c-.345 11.603-9.92 20.962-21.609 20.962-1.208 0-2.373-.129-3.494-.302v-.043c2.976-5.133 7.031-11.99 10.913-18.547.863-1.51 1.51-2.07 2.977-2.07H43.22ZM0 22.256c.173 6.858 3.494 12.811 8.583 16.649h.043c3.192-5.564 5.78-10.094 9.015-15.657.302-.518.173-.949-.388-.949zm2.286-10.395C5.866 4.831 13.156 0 21.567 0s15.744 4.831 19.281 11.861H30.582c-1.294 0-2.329.388-2.976 1.251-.215-.647-.561-1.251-1.38-1.251zm8.67 28.64c1.337.732 2.76 1.38 4.271 1.812l.043-.087c2.933-4.96 7.807-13.241 11.991-20.315 1.165-1.94 2.458-2.674 4.486-2.674h11.301c-.172-1.639-.561-3.191-1.078-4.701H30.366c-1.423 0-2.847.733-3.709 1.941-.086-.475-.216-.733-.345-1.036-.302-.517-.604-.906-1.423-.906H1.208C.69 16.045.302 17.598.129 19.236h20.187c2.027 0 1.38 2.761.345 4.529-3.235 5.564-6.513 11.172-9.705 16.736z"/>
</svg>
